<svg width="96" height="96" viewBox="0 0 96 96" fill="none" xmlns="http://www.w3.org/2000/svg">
<path d="M57.5996 0C71.0408 0 77.7616 0.000398636 82.8955 2.61621C87.4114 4.91717 91.0828 8.5886 93.3838 13.1045C95.9996 18.2384 96 24.9592 96 38.4004V57.5996C96 71.0408 95.9996 77.7616 93.3838 82.8955C91.0828 87.4114 87.4114 91.0828 82.8955 93.3838C77.7616 95.9996 71.0408 96 57.5996 96H38.4004C24.9592 96 18.2384 95.9996 13.1045 93.3838C8.5886 91.0828 4.91717 87.4114 2.61621 82.8955C0.000398636 77.7616 0 71.0408 0 57.5996V38.4004C0 24.9592 0.000398636 18.2384 2.61621 13.1045C4.91717 8.5886 8.5886 4.91717 13.1045 2.61621C18.2384 0.000398636 24.9592 0 38.4004 0H57.5996ZM26 52C16.0589 52 8 60.0589 8 70C8 79.9411 16.0589 88 26 88H70C79.9411 88 88 79.9411 88 70C88 60.0589 79.9411 52 70 52H26ZM26 8C16.0589 8 8 16.0589 8 26C8 35.9411 16.0589 44 26 44H70C79.9411 44 88 35.9411 88 26C88 16.0589 79.9411 8 70 8H26Z" fill="#0D0D0D"/>
</svg>
